HIERARCHY
ROOT Hips
{
	OFFSET 0.000000 0.000000 0.000000 
	CHANNELS 6 Xposition Yposition Zposition Yrotation Zrotation Xrotation 
	JOINT Lumbar
	{
		OFFSET 0.000000 0.000000 0.000000 
		CHANNELS 3 Zrotation Xrotation Yrotation
		JOINT Neck
		{
			OFFSET 0.000000 0.445665 0.000000 
			CHANNELS 3 Zrotation Xrotation Yrotation
			End Site
			{
				OFFSET 0.000000 0.227535 0.000000 
			}
		}
		JOINT RightShoulder
		{
			OFFSET 0.019635 0.377685 0.194865 
			CHANNELS 3 Zrotation Xrotation Yrotation
			JOINT RightElbow
			{
				OFFSET 0.000000 -0.243375 0.000000 
				CHANNELS 2 Zrotation Yrotation
				JOINT RightWrist
				{
					OFFSET 0.000000 -0.264825 0.000000 
					CHANNELS 2 Zrotation Xrotation
					End Site
					{
						OFFSET 0.006600 -0.176220 0.000990 
					}
				}
			}
		}
		JOINT LeftShoulder
		{
			OFFSET 0.019635 0.377685 -0.194865 
			CHANNELS 3 Zrotation Xrotation Yrotation
			JOINT LeftElbow
			{
				OFFSET 0.000000 -0.243375 0.000000 
				CHANNELS 2 Zrotation Yrotation
				JOINT LeftWrist
				{
					OFFSET 0.000000 -0.264825 0.000000 
					CHANNELS 2 Zrotation Xrotation
					End Site
					{
						OFFSET 0.006600 -0.176220 -0.000990 
					}
				}
			}
		}
	}
	JOINT RightHip
	{
		OFFSET 0.052140 -0.069960 0.075570 
		CHANNELS 3 Zrotation Xrotation Yrotation
		JOINT RightKnee
		{
			OFFSET 0.000000 -0.402270 0.000000 
			CHANNELS 1 Zrotation
			JOINT RightAnkle
			{
				OFFSET 0.000000 -0.404085 0.000000 
				CHANNELS 3 Zrotation Xrotation Yrotation
				End Site
				{
					OFFSET 0.204105 -0.089430 0.008415 
				}
			}
		}
	}
	JOINT LeftHip
	{
		OFFSET 0.052140 -0.069960 -0.075570 
		CHANNELS 3 Zrotation Xrotation Yrotation
		JOINT LeftKnee
		{
			OFFSET 0.000000 -0.402270 0.000000 
			CHANNELS 1 Zrotation
			JOINT LeftAnkle
			{
				OFFSET 0.000000 -0.404085 0.000000 
				CHANNELS 3 Zrotation Xrotation Yrotation
				End Site
				{
					OFFSET 0.204105 -0.089430 -0.008415 
				}
			}
		}
	}
}
MOTION
Frames: 32
Frame Time: 0.02
0 0.95578 -0 166.22998 0 -6.19663 7.41603 5.81624 0.6391 -43.40081 -3.61467 -6.39772 35.34599 -6.06587 2.85768 9.78142 83.03464 -1.35613 -4.06487 29.32091 22.33711 -3.78286 10.23481 -78.77095 -3.59757 1.264 -6.12562 8.92742 11.31718 -7.10649 -11.74284 -1.7161 -16.58879 -10.64118 7.26332 18.25742 -2.31438 -3.65887 3.65631 8.13989
-0.00015 0.95582 0.00067 166.48632 0 -6.15889 7.48014 5.81027 0.63684 -43.05178 -3.53007 -6.27781 35.06351 -6.14872 3.34444 9.72178 82.99175 -1.289 -3.97795 29.56124 22.13834 -4.87471 10.43269 -78.80303 -3.67739 1.39625 -6.13118 8.77897 9.4603 -7.12671 -11.59704 -1.8796 -15.01076 -10.60984 7.23121 18.14425 -2.28232 -3.67586 3.64083 8.02201
-0.0003 0.95585 0.00134 166.74274 0 -6.12109 7.54387 5.80412 0.63434 -42.70364 -3.44576 -6.15881 34.78176 -6.2314 3.8301 9.66269 82.94887 -1.22234 -3.89179 29.8019 21.94038 -5.96273 10.63134 -78.83552 -3.75764 1.52942 -6.13692 8.63127 7.61614 -7.14665 -11.45218 -2.04194 -13.44512 -10.57841 7.19905 18.03054 -2.25022 -3.69292 3.62536 7.90455
-0.00045 0.95588 0.00201 167.00177 0 -6.08272 7.6068 5.7971 0.63077 -42.35652 -3.36172 -6.04262 34.50064 -6.3136 4.31593 9.60508 82.90551 -1.15681 -3.80776 30.04576 21.74407 -7.04444 10.83294 -78.86955 -3.83917 1.66594 -6.14385 8.48539 5.80544 -7.16509 -11.30974 -2.2011 -11.91426 -10.54642 7.16656 17.91358 -2.21788 -3.71033 3.60975 7.78776
-0.00062 0.95591 0.00266 167.24672 0 -6.0474 7.67409 5.79459 0.63274 -42.00501 -3.27617 -5.91195 34.21676 -6.39758 4.80068 9.53943 82.86454 -1.08517 -3.71237 30.27211 21.53944 -8.15765 11.01645 -78.89494 -3.91246 1.7828 -6.14498 8.33018 3.81835 -7.19081 -11.15454 -2.37695 -10.19991 -10.51749 7.136 17.81386 -2.18707 -3.72574 3.59489 7.6676
-0.00074 0.95595 0.00336 167.52137 0 -6.00567 7.73198 5.78262 0.62306 -41.66246 -3.19394 -5.81174 33.93864 -6.47822 5.28733 9.491 82.81865 -1.02658 -3.64117 30.53562 21.35232 -9.2044 11.2397 -78.9389 -4.00409 1.9424 -6.15804 8.19469 2.20573 -7.20155 -11.02643 -2.51741 -8.87486 -10.48206 7.10126 17.67778 -2.15291 -3.74545 3.57846 7.55455
-0.00075 0.95596 0.0042 167.88743 0 -5.94444 7.76552 5.74246 0.5792 -41.34185 -3.11862 -5.79855 33.67213 -6.54739 5.79201 9.48926 82.75645 -1.00322 -3.63666 30.90963 21.21238 -10.07913 11.56885 -79.03455 -4.14239 2.21799 -6.20848 8.11329 1.62548 -7.16588 -10.9728 -2.55982 -8.63223 -10.42764 7.05479 17.43369 -2.10941 -3.77726 3.55698 7.46001
-0.00071 0.95598 0.00509 168.28206 0 -5.877 7.78931 5.69307 0.52391 -41.03047 -3.04692 -5.81551 33.41192 -6.61375 6.29663 9.50504 82.68965 -0.99315 -3.65657 31.31987 21.09012 -10.88542 11.93896 -79.14901 -4.29995 2.53727 -6.27025 8.05179 1.4231 -7.1159 -10.94653 -2.56659 -8.78111 -10.3668 7.0041 17.154 -2.06256 -3.81335 3.53404 7.37283
-0.00068 0.95599 0.00596 168.65811 0 -5.81348 7.81652 5.64921 0.47506 -40.71628 -2.975 -5.81683 33.15127 -6.68284 6.79384 9.5134 82.62671 -0.97748 -3.66537 31.7092 20.96037 -11.71691 12.2936 -79.25467 -4.45164 2.83842 -6.32396 7.98132 1.04808 -7.07586 -10.90784 -2.58995 -8.74572 -10.30951 6.95541 16.89523 -2.01718 -3.8474 3.51219 7.28275
-0.00069 0.956 0.00682 169.05815 0 -5.74535 7.84791 5.59979 0.42085 -40.39626 -2.89732 -5.82652 32.88045 -6.74546 7.32316 9.51955 82.55655 -0.95993 -3.67427 32.11828 20.8285 -12.57401 12.63596 -79.36124 -4.59172 3.13285 -6.38972 7.91055 0.67642 -7.0217 -10.86899 -2.61174 -8.73679 -10.24954 6.90635 16.61651 -1.9718 -3.88201 3.48849 7.19041
-0.00062 0.95603 0.0077 169.4145 0 -5.68536 7.86839 5.55968 0.37523 -40.09063 -2.83219 -5.82571 32.6323 -6.8213 7.78461 9.53438 82.50004 -0.9495 -3.68871 32.49354 20.70505 -13.36049 13.01233 -79.47059 -4.75982 3.45092 -6.43335 7.84514 0.38833 -6.99304 -10.83713 -2.6282 -8.76627 -10.19365 6.85706 16.37085 -1.92591 -3.91629 3.46836 7.10501
-0.00034 0.95609 0.00865 169.6478 0 -5.64894 7.8603 5.54822 0.35494 -39.82179 -2.80331 -5.79037 32.44486 -6.93098 8.06725 9.56963 82.48478 -0.95515 -3.71284 32.77717 20.60218 -13.97733 13.48332 -79.58124 -5.00668 3.82942 -6.41083 7.78937 0.23071 -7.04262 -10.81652 -2.63971 -8.80107 -10.15033 6.80823 16.22545 -1.87712 -3.95003 3.45804 7.03282
2e-05 0.95616 0.00963 169.83531 0 -5.62095 7.84173 5.54625 0.34384 -39.56719 -2.78648 -5.74306 32.27998 -7.05471 8.28001 9.61288 82.48305 -0.96758 -3.74163 33.0232 20.50686 -14.52348 13.98477 -79.6943 -5.27974 4.2288 -6.36608 7.7383 0.14552 -7.11753 -10.80225 -2.64689 -8.8619 -10.11133 6.75925 16.11447 -1.82846 -3.983 3.45143 6.96817
0.00034 0.95623 0.01059 170.04076 0 -5.58943 7.82853 5.53956 0.32936 -39.30659 -2.76253 -5.69998 32.1051 -7.17422 8.51918 9.652 82.47341 -0.97713 -3.76801 33.2799 20.40703 -15.09686 14.46574 -79.8075 -5.53705 4.61523 -6.33295 7.68537 0.03233 -7.17802 -10.78599 -2.65535 -8.91405 -10.07058 6.71037 15.98761 -1.78114 -4.01536 3.44337 6.90275
0.00069 0.9563 0.01157 170.25925 0 -5.55663 7.81246 5.53453 0.31137 -39.04455 -2.74567 -5.66303 31.92971 -7.28447 8.78094 9.69383 82.47066 -0.9863 -3.79646 33.56632 20.31241 -15.69017 14.9777 -79.91644 -5.81204 5.01914 -6.29373 7.63221 -0.08819 -7.25036 -10.76698 -2.66545 -8.96662 -10.0289 6.66143 15.86068 -1.72744 -4.05193 3.43426 6.82623
0.00099 0.95637 0.01253 170.43944 0 -5.52834 7.79997 5.5281 0.30274 -38.78849 -2.71682 -5.61013 31.76024 -7.41739 8.97902 9.73168 82.45729 -0.99768 -3.82141 33.77973 20.20845 -16.22399 15.42986 -80.03422 -6.05521 5.38931 -6.26187 7.58008 -0.18148 -7.30412 -10.75479 -2.67158 -9.01934 -9.99002 6.61234 15.74231 -1.68758 -4.07949 3.42826 6.77468
0.00118 0.9564 0.01343 170.52428 0 -5.51251 7.80025 5.51808 0.3199 -38.54737 -2.65198 -5.51545 31.60475 -7.60959 9.01874 9.75642 82.40742 -1.01361 -3.83514 33.81459 20.07699 -16.6283 15.72554 -80.17871 -6.21207 5.67562 -6.2549 7.53222 -0.21642 -7.30144 -10.76016 -2.66776 -9.06479 -9.95979 6.56532 15.64095 -1.68213 -4.08239 3.42969 6.78906
0.00132 0.95643 0.01433 170.57241 0 -5.50054 7.80443 5.50582 0.3457 -38.31115 -2.57456 -5.40513 31.45352 -7.8242 8.99677 9.77679 82.3471 -1.03144 -3.84513 33.77413 19.93564 -16.97186 15.95655 -80.33125 -6.33433 5.92421 -6.25621 7.48457 -0.22865 -7.27912 -10.77195 -2.66026 -9.10784 -9.93177 6.51767 15.54662 -1.69147 -4.0762 3.43418 6.82849
0.00147 0.95647 0.01524 170.63739 0 -5.48556 7.80673 5.49298 0.36629 -38.07169 -2.50292 -5.30225 31.29859 -8.02836 9.0027 9.79918 82.29412 -1.04829 -3.85701 33.75941 19.79882 -17.33264 16.2067 -80.47827 -6.46725 6.18055 -6.25425 7.43511 -0.25359 -7.26511 -10.78047 -2.65464 -9.15079 -9.90163 6.46882 15.44838 -1.69635 -4.07414 3.43743 6.85722
0.00165 0.9565 0.01611 170.69903 0 -5.47636 7.80937 5.48741 0.39307 -37.83795 -2.43169 -5.1975 31.15307 -8.23374 9.00651 9.82177 82.23076 -1.06594 -3.86833 33.78084 19.66266 -17.73641 16.50219 -80.63377 -6.62289 6.47781 -6.24945 7.39336 -0.26513 -7.25436 -10.79078 -2.64799 -9.19962 -9.87684 6.42647 15.35532 -1.6911 -4.07212 3.44018 6.88336
0.00178 0.95653 0.01706 170.76084 0 -5.45568 7.81206 5.46581 0.40833 -37.59207 -2.35613 -5.09315 30.98719 -8.4422 9.00132 9.84276 82.18628 -1.08221 -3.87975 33.70757 19.52201 -18.03507 16.68629 -80.77283 -6.72214 6.67997 -6.25279 7.33517 -0.30086 -7.23209 -10.79874 -2.64265 -9.23565 -9.84074 6.37013 15.25147 -1.71122 -4.06781 3.44463 6.92071
0.00178 0.95659 0.01819 170.82102 0 -5.4046 7.81649 5.40257 0.39469 -37.32092 -2.27495 -4.9931 30.77551 -8.64927 8.98364 9.86054 82.19722 -1.09482 -3.89324 33.40741 19.37742 -18.07642 16.58855 -80.87001 -6.67839 6.63409 -6.27678 7.23468 -0.4039 -7.18078 -10.79919 -2.64196 -9.23278 -9.77848 6.27785 15.12631 -1.79113 -4.05976 3.45316 6.98315
0.00174 0.95665 0.0194 170.88501 0 -5.34146 7.82032 5.32295 0.36833 -37.03497 -2.18943 -4.89419 30.54028 -8.85922 8.95977 9.87672 82.22734 -1.10586 -3.90674 33.01108 19.22771 -18.01117 16.37906 -80.94931 -6.57825 6.49279 -6.30868 7.11705 -0.53331 -7.11897 -10.79695 -2.64274 -9.21775 -9.70377 6.17106 14.98791 -1.89712 -4.04966 3.46325 7.05593
0.00173 0.95672 0.02061 170.95471 0 -5.2822 7.82294 5.24924 0.34428 -36.75027 -2.10342 -4.79521 30.30898 -9.07097 8.94099 9.89359 82.2481 -1.11719 -3.91966 32.64914 19.07603 -17.98305 16.21387 -81.03319 -6.50087 6.39148 -6.33705 7.00512 -0.65451 -7.06302 -10.7955 -2.64278 -9.21074 -9.63094 6.06921 14.84875 -1.99578 -4.04023 3.47255 7.12376
0.0017 0.95676 0.02168 170.99143 0 -5.22946 7.83236 5.18145 0.33461 -36.49122 -2.02643 -4.69371 30.10907 -9.27128 8.91086 9.91078 82.27111 -1.13031 -3.93496 32.32643 18.94121 -18.00005 16.07327 -81.13237 -6.43399 6.30277 -6.36576 6.90188 -0.75938 -7.00122 -10.79598 -2.64292 -9.1929 -9.57382 5.97421 14.73865 -2.07666 -4.03151 3.48233 7.1935
0.00169 0.95685 0.02306 171.09854 0 -5.16069 7.82688 5.09805 0.29257 -36.1722 -1.93096 -4.59801 29.83482 -9.49466 8.90313 9.92661 82.29429 -1.13937 -3.94527 31.89697 18.77139 -17.89919 15.85648 -81.1953 -6.33283 6.16606 -6.39511 6.77667 -0.90428 -6.95011 -10.79186 -2.64334 -9.19507 -9.48142 5.86163 14.56457 -2.19957 -4.02101 3.49139 7.26139
0.0017 0.95702 0.02522 171.39665 0 -5.04672 7.78527 4.97057 0.15839 -35.71727 -1.77582 -4.51761 29.39034 -9.79007 8.96428 9.94207 82.3117 -1.13701 -3.94246 31.22447 18.49638 -17.49477 15.45078 -81.16264 -6.14651 5.91657 -6.42778 6.59319 -1.15827 -6.9246 -10.77447 -2.64328 -9.2528 -9.29095 5.70301 14.21916 -2.44061 -4.00566 3.4985 7.32129
0.00172 0.95724 0.02769 171.766 0 -4.91777 7.72779 4.82891 -0.00673 -35.1982 -1.60437 -4.44322 28.86707 -10.10639 9.04743 9.95553 82.32882 -1.13068 -3.93445 30.44359 18.18867 -16.97728 14.97385 -81.0941 -5.92869 5.62295 -6.46013 6.38854 -1.45082 -6.91147 -10.75276 -2.64358 -9.33151 -9.06613 5.52742 13.80963 -2.7213 -3.98873 3.50473 7.37878
0.00175 0.95743 0.03005 172.10468 0 -4.79813 7.67433 4.69696 -0.15411 -34.6906 -1.4465 -4.36636 28.35976 -10.40766 9.11733 9.96814 82.34733 -1.12663 -3.92847 29.69342 17.90176 -16.51366 14.53352 -81.04178 -5.72823 5.35202 -6.49033 6.19474 -1.72255 -6.89704 -10.73376 -2.64435 -9.40245 -8.85935 5.36026 13.42772 -2.97831 -3.97285 3.51108 7.43761
0.00175 0.95763 0.0323 172.43673 0 -4.66735 7.6342 4.55047 -0.31812 -34.25468 -1.26135 -4.28819 27.93254 -10.73418 9.20102 9.98874 82.36181 -1.12072 -3.92416 29.01559 17.58759 -16.03268 14.07073 -80.989 -5.51269 5.06646 -6.53053 5.99506 -2.00907 -6.86413 -10.71141 -2.64269 -9.46581 -8.64165 5.18949 13.05074 -3.26051 -3.95545 3.5187 7.49627
0.0018 0.95782 0.03484 172.79888 0 -4.55657 7.56273 4.43133 -0.45382 -33.6575 -1.13056 -4.21448 27.3237 -11.01084 9.26093 9.99147 82.38362 -1.1175 -3.91479 28.1658 17.32502 -15.5663 13.6401 -80.92913 -5.32211 4.80231 -6.54966 5.80293 -2.27366 -6.8726 -10.6952 -2.64591 -9.54976 -8.43897 5.02247 12.64973 -3.49883 -3.94091 3.52341 7.55394
0.00201 0.95797 0.03807 173.23168 0 -4.50323 7.40632 4.38935 -0.51085 -32.60259 -1.1419 -4.14832 26.20072 -11.16422 9.2537 9.95224 82.43225 -1.12507 -3.89591 26.83964 17.19084 -15.13414 13.30946 -80.85652 -5.206 4.60742 -6.51103 5.63632 -2.46723 -6.99434 -10.69578 -2.66466 -9.68853 -8.28403 4.86964 12.1873 -3.61024 -3.93426 3.52054 7.61493
